# xmcd CD database file
#
# Track frame offsets:
#	150
#	18347
#	38744
#	56593
#	77994
#	99506
#	118148
#	136345
#	150626
#	175927
#	192884
#	211122
#	229821
#	243406
#	263692
#	285890
#	303251
#	318206
#	332391
#
# Disc length: 4782 seconds
#
# Revision: 0
# Processed by: cddbd v1.5.1PL2 Copyright (c) Steve Scherf et al.
# Submitted via: CDex 1.40Beta9
#
DISCID=f312ac13
DTITLE=Debbie Vicari - What I would give
DYEAR=2004
DGENRE=Country
TTITLE0=I cant think of you tonight
TTITLE1=Dant call me anymore
TTITLE2=What I'd give - Diana's song
TTITLE3=The rain came down - joes song
TTITLE4=Tomorrows history start today
TTITLE5=Funny farm
TTITLE6=I'm just a waste of time
TTITLE7=You no longer love me
TTITLE8=Voodoo nights - song of seduction
TTITLE9=Much too tired for that
TTITLE10=Walk on water
TTITLE11=over me over you
TTITLE12=It just is
TTITLE13=What I'd give - Love Version
TTITLE14=The greatest Love
TTITLE15=Here on the Playa
TTITLE16=Tu solo tu
TTITLE17=Tu no me quieres
TTITLE18=Noches de Voodoo
EXTD=YEAR: 2004 ID3G: 2
EXTT0=
EXTT1=
EXTT2=
EXTT3=
EXTT4=
EXTT5=
EXTT6=
EXTT7=
EXTT8=
EXTT9=
EXTT10=
EXTT11=
EXTT12=
EXTT13=
EXTT14=
EXTT15=
EXTT16=
EXTT17=
EXTT18=
PLAYORDER=
